<svg xmlns="http://www.w3.org/2000/svg" version="1.1" xmlns:xlink="http://www.w3.org/1999/xlink" width="576" height="432"><svg xmlns="http://www.w3.org/2000/svg" version="1.1" viewBox="0 0 576 432">
  <defs>
    <style>
      .cls-1 {
        font-family: Fit-Wide, Fit;
        font-size: 144.21px;
      }

      .cls-2 {
        fill: #fff;
      }

      .cls-3 {
        font-family: Embryo, Embryo;
      }

      .cls-3, .cls-4 {
        font-size: 198.88px;
      }

      .cls-4 {
        font-family: DoUbLeBaSs-Bold, DoUbLeBaSs;
        font-weight: 700;
      }

      .cls-5 {
        fill: #ff841f;
      }

      .cls-6 {
        font-family: Chorine-Large, Chorine;
        font-size: 91.31px;
      }
    </style>
  </defs>
  <!-- Generator: Adobe Illustrator 28.7.5, SVG Export Plug-In . SVG Version: 1.2.0 Build 176)  -->
  <g>
    <g id="SvgjsG1002">
      <text class="cls-3" transform="translate(28.49 -1077.72)"><tspan x="0" y="0">kooki</tspan></text>
      <text class="cls-4" transform="translate(65.71 -855.19)"><tspan x="0" y="0">kooki</tspan></text>
      <path d="M149.45-707.07l-4.04,8.89-1.48,3.23-4.44,8.21c-3.37,5.92-8.35,15.49-15.62,21.68l-4.58,3.77c-.94,1.48-4.71.54-5.79,3.91,8.48,5.66,16.56,21.54,21.01,36.49l1.75,5.39c1.35,4.98,2.83,9.96,3.64,14.81-.67.13-1.35.13-2.29.13l-16.83.13c-.27-1.21-.4-2.69-.81-4.58l-.94-4.58-.67-3.37-.94-3.5c-.81-2.96-1.62-6.19-2.83-9.29-1.62-4.17-3.64-8.48-6.19-11.98l-8.48-10.5h-.4v25.05c0,.13-.13,4.98-.13,9.56-.13,2.56.81,5.25.54,8.21-.13,1.21-.27,2.42-.94,3.64-1.62.54-9.29,1.21-12.79,1.21-1.35,0-5.12-.4-5.12-2.69-.13-2.56-.54-6.46-.54-10.64,0-4.44-.4-9.02-.4-13.73,0-1.21-.13-2.42-.13-3.64,0-2.42-.13-4.85-.13-7.41v-7.68c0-1.21-.13-2.56-.13-3.77v-1.89c0-8.35-.4-21.28-.54-30.43,0-.94-.13-1.88-.13-2.69s-.13-1.75-.13-2.56c-1.89-.94-12.66-.54-18.45-.67-1.75,0-2.96-.13-3.37-.4l.4-17.64h.94c1.62,0,8.08-.4,14.27-.4,7.54-.13,16.16,0,22.22.81,1.21,1.48,1.88,3.64,2.15,6.33l.4,7.27c0,.67.13,1.21.13,1.89,0,1.21.13,2.42.13,3.64s.13,2.29.13,3.5c0,3.91.4,7.54.4,11.18l.27,4.71c2.69.81,5.39-1.08,8.48-4.17l2.42-2.69c19.26-22.49,14.54-33.13,27.07-33.13h4.58c2.69,0,5.66.13,8.35.4Z"></path>
      <path d="M196.44-682.16l1.08.27c5.79,2.29,9.7,8.21,11.18,14l.54,2.16c.27,1.08.4,2.15.54,3.37l.27,2.42c.27,2.42.54,4.98.54,7.81v1.48c0,1.35.13,2.83.13,4.31v15.22c0,3.23-.27,6.46-.27,9.7v1.21c0,3.9-1.48,8.08-3.1,11.58-5.39,9.7-15.62,12.39-28.68,12.39-3.37,0-6.46,0-9.29-.27-14.27-1.08-21.95-6.73-25.05-16.56l-.67-2.16c-.81-2.42-1.62-6.87-1.62-10.23,0-1.21-.27-2.56-.27-3.77v-8.21c0-4.58.4-9.43.4-13.87,0-1.48.13-3.23.27-4.58l.27-3.1c0-.67.27-1.35.27-2.02l.27-2.83c.13-1.21.54-2.42,1.08-4.04l1.35-3.77c.81-3.23,3.37-6.19,8.08-8.08l3.77-1.48c4.85-1.35,9.96-2.15,15.62-2.69,2.96-.27,6.06-.4,9.43-.4h1.21c4.58,0,8.48,1.08,12.66,2.15ZM165.47-637.18v2.02c0,.94.13,1.88.13,2.83s.13,1.89.13,2.83l.27,3.77c.13,1.62.4,3.37.4,4.98v1.35c0,.4.13.81.13,1.21.94,5.52,2.83,6.87,11.18,6.87,1.75,0,3.37,0,5.12-.4,8.75-1.48,9.16-10.1,9.16-18.99v-4.17c0-1.21-.13-2.56-.13-3.77v-1.89c0-2.69-.4-5.39-.4-8.08v-1.35c0-.94-.13-1.89-.13-2.83v-1.48c0-.54-.13-.94-.13-1.48v-2.29c0-8.35-3.77-10.37-11.45-10.37h-.81c-.81,0-1.75-.13-2.56-.13-10.1,0-11.04,5.12-11.04,11.85v1.89c0,2.02-.13,4.31-.13,6.73v4.04c0,2.29.27,4.58.27,6.87Z"></path>
      <path d="M271.72-698.45c12.93,6.73,13.2,22.76,13.2,40.26v3.5c0,4.98,0,10.23-.13,15.62,0,22.62-9.7,30.7-31.78,30.7-15.49,0-23.43-1.75-29.76-9.7-6.87-9.16-7-20.33-7-32.32v-2.96c0-5.92.4-11.31.67-16.16,0-2.29.27-4.71.54-6.87l.4-4.04c.13-.94.54-2.02.94-3.37l1.35-3.91c1.89-8.62,16.56-13.06,36.76-13.33,5.25,0,10.1.94,14.81,2.56ZM241.69-643.65c0,15.49-.4,19.53,12.66,19.53h1.48c11.45,0,12.25-7.68,12.25-20.47v-1.35c0-5.66-.27-11.85-.54-18.58,0-21.01-4.58-19.79-14.81-19.79h-1.89c-10.5,0-9.56,8.89-9.56,21.68v1.21c0,4.98,0,11.04.4,17.78Z"></path>
      <path d="M340.12-682.16h1.89c2.42,0,6.87-.4,11.18-.27,1.35,0,2.56.13,3.77.27.27,2.42-.13,7-.94,11.31l-.4,2.29c-.27,1.48-.81,3.37-1.21,4.71l-2.02,6.33c-.54,1.75-1.35,3.37-2.02,5.12l-1.08,2.56-2.96,6.33c-1.21,2.42-2.56,4.71-4.17,7l-2.29,3.23-3.37,3.91c-2.15,2.56-3.5,3.23-4.85,7.14.27,0,.81.13,1.08.4l1.08.54c1.21.67,2.29,1.62,3.37,2.69l1.08,1.21c1.21,1.48,2.42,2.83,3.64,4.58l1.89,2.83,2.56,4.17c.67,1.08,1.21,2.29,1.89,3.5l3.5,6.33,7.14,14.41,2.29,4.71.81,1.62-2.29.4-16.83,1.75c-.4-.54-.94-1.21-1.35-2.02l-.94-1.62c-.27-.54-.67-1.08-.94-1.75l-2.56-5.12c-1.21-2.42-2.56-5.39-3.91-8.08-3.77-8.35-7.94-14.54-18.18-21.28v14.81c0,4.98-.13,11.18-.13,15.22v2.56l-2.29.4c-4.85.81-10.91,1.35-16.16,1.35l-.27-4.71c-.13-3.1-.4-6.19-.4-9.29,0-.81-.13-1.75-.13-2.69,0-3.37-.13-7.81-.13-11.98,0-2.02-.13-4.17-.13-6.19v-58.17c0-1.21-.13-2.42-.13-3.64v-8.75c0-1.35-.13-2.56-.13-3.77v-1.75c0-.81-.13-1.62-.13-2.42v-3.91c0-4.44-.13-8.75-.13-13.2,3.1,0,7.14-.94,19.66.54,1.21,1.08,1.89,2.69,1.89,5.12v1.75c0,.67.13,1.48.13,2.29v7.27c0,1.62-.13,3.23-.13,4.98v4.04c0,8.89-.27,18.58-.27,32.32v4.71c0,6.06.4,10.37.4,12.25l1.75-.94c.81-.67,1.62-1.48,2.42-2.56l1.89-2.56c.67-.94,1.35-2.16,1.89-3.23l2.42-4.71,1.21-2.56,1.08-2.69c2.29-5.66,4.71-11.58,5.79-17.64l.81-4.71c0-.4.13-.67.13-1.08.27-2.42.27-4.44-.13-5.79.81-.13,2.83.13,4.44.13Z"></path>
      <path d="M354.4-706.4c.81-.13,12.52-.4,12.79-.4,2.15-.54,13.06.81,14.27.13,1.21-.27,2.42-.54,4.04-.67.13,1.21.27,2.16.13,3.1,0,5.79-.81,16.29-.81,27.47v9.43c0,3.23.13,6.33.4,9.56l.4,4.71c.27,2.56.54,5.12.54,7.68,0,1.08,0,2.02-.13,3.1-.13.94-.27,2.02-.27,2.96v10.23c0,2.83-.27,5.66-.27,8.48,0,2.02.13,3.91.27,5.92l.4,2.96.4,2.83c.27,2.42.27,4.85-.94,7.41-6.46.81-12.79,1.48-18.18.54-.54-.94-.67-1.62-.67-2.02,0-1.08-.13-2.02-.13-3.1l-.27-4.58c0-3.1-.4-5.92-.4-9.02,0-6.73.67-13.6.67-20.33,0-.67.13-1.62.13-2.69v-10.91c0-4.58.13-9.29.13-13.87v-12.93c0-1.08-.13-2.15-.13-3.1v-5.25h-1.62c-2.83,0-3.64.4-8.89.81,0,0-1.48-12.12-1.89-18.45Z"></path>
      <ellipse cx="172.86" cy="-647.86" rx="12.92" ry="16.32"></ellipse>
      <ellipse cx="260.09" cy="-640.28" rx="12.92" ry="16.32"></ellipse>
      <path d="M158.08-514.3l-4.04,8.89-1.48,3.23-4.44,8.21c-3.37,5.92-8.35,15.49-15.62,21.68l-4.58,3.77c-.94,1.48-4.71.54-5.79,3.91,8.48,5.66,16.56,21.54,21.01,36.49l1.75,5.39c1.35,4.98,2.83,9.96,3.64,14.81-.67.13-1.35.13-2.29.13l-16.83.13c-.27-1.21-.4-2.69-.81-4.58l-.94-4.58-.67-3.37-.94-3.5c-.81-2.96-1.62-6.19-2.83-9.29-1.62-4.17-3.64-8.48-6.19-11.98l-8.48-10.5h-.4v25.05c0,.13-.13,4.98-.13,9.56-.13,2.56.81,5.25.54,8.21-.13,1.21-.27,2.42-.94,3.64-1.62.54-9.29,1.21-12.79,1.21-1.35,0-5.12-.4-5.12-2.69-.13-2.56-.54-6.46-.54-10.64,0-4.44-.4-9.02-.4-13.73,0-1.21-.13-2.42-.13-3.64,0-2.42-.13-4.85-.13-7.41v-7.68c0-1.21-.13-2.56-.13-3.77v-1.89c0-8.35-.4-21.28-.54-30.43,0-.94-.13-1.88-.13-2.69s-.13-1.75-.13-2.56c-1.89-.94-12.66-.54-18.45-.67-1.75,0-2.96-.13-3.37-.4l.4-17.64h.94c1.62,0,8.08-.4,14.27-.4,7.54-.13,16.16,0,22.22.81,1.21,1.48,1.88,3.64,2.15,6.33l.4,7.27c0,.67.13,1.21.13,1.89,0,1.21.13,2.42.13,3.64s.13,2.29.13,3.5c0,3.91.4,7.54.4,11.18l.27,4.71c2.69.81,5.39-1.08,8.48-4.17l2.42-2.69c19.26-22.49,14.54-33.13,27.07-33.13h4.58c2.69,0,5.66.13,8.35.4Z"></path>
      <path d="M205.08-489.38l1.08.27c5.79,2.29,9.7,8.21,11.18,14l.54,2.16c.27,1.08.4,2.15.54,3.37l.27,2.42c.27,2.42.54,4.98.54,7.81v1.48c0,1.35.13,2.83.13,4.31v15.22c0,3.23-.27,6.46-.27,9.7v1.21c0,3.9-1.48,8.08-3.1,11.58-5.39,9.7-15.62,12.39-28.68,12.39-3.37,0-6.46,0-9.29-.27-14.27-1.08-21.95-6.73-25.05-16.56l-.67-2.16c-.81-2.42-1.62-6.87-1.62-10.23,0-1.21-.27-2.56-.27-3.77v-8.21c0-4.58.4-9.43.4-13.87,0-1.48.13-3.23.27-4.58l.27-3.1c0-.67.27-1.35.27-2.02l.27-2.83c.13-1.21.54-2.42,1.08-4.04l1.35-3.77c.81-3.23,3.37-6.19,8.08-8.08l3.77-1.48c4.85-1.35,9.96-2.15,15.62-2.69,2.96-.27,6.06-.4,9.43-.4h1.21c4.58,0,8.48,1.08,12.66,2.15ZM174.11-444.41v2.02c0,.94.13,1.88.13,2.83s.13,1.89.13,2.83l.27,3.77c.13,1.62.4,3.37.4,4.98v1.35c0,.4.13.81.13,1.21.94,5.52,2.83,6.87,11.18,6.87,1.75,0,3.37,0,5.12-.4,8.75-1.48,9.16-10.1,9.16-18.99v-4.17c0-1.21-.13-2.56-.13-3.77v-1.89c0-2.69-.4-5.39-.4-8.08v-1.35c0-.94-.13-1.89-.13-2.83v-1.48c0-.54-.13-.94-.13-1.48v-2.29c0-8.35-3.77-10.37-11.45-10.37h-.81c-.81,0-1.75-.13-2.56-.13-10.1,0-11.04,5.12-11.04,11.85v1.89c0,2.02-.13,4.31-.13,6.73v4.04c0,2.29.27,4.58.27,6.87Z"></path>
      <path d="M280.35-505.68c12.93,6.73,13.2,22.76,13.2,40.26v3.5c0,4.98,0,10.23-.13,15.62,0,22.62-9.7,30.7-31.78,30.7-15.49,0-23.43-1.75-29.76-9.7-6.87-9.16-7-20.33-7-32.32v-2.96c0-5.92.4-11.31.67-16.16,0-2.29.27-4.71.54-6.87l.4-4.04c.13-.94.54-2.02.94-3.37l1.35-3.91c1.89-8.62,16.56-13.06,36.76-13.33,5.25,0,10.1.94,14.81,2.56ZM250.32-450.87c0,15.49-.4,19.53,12.66,19.53h1.48c11.45,0,12.25-7.68,12.25-20.47v-1.35c0-5.66-.27-11.85-.54-18.58,0-21.01-4.58-19.79-14.81-19.79h-1.89c-10.5,0-9.56,8.89-9.56,21.68v1.21c0,4.98,0,11.04.4,17.78Z"></path>
      <path d="M348.76-489.38h1.89c2.42,0,6.87-.4,11.18-.27,1.35,0,2.56.13,3.77.27.27,2.42-.13,7-.94,11.31l-.4,2.29c-.27,1.48-.81,3.37-1.21,4.71l-2.02,6.33c-.54,1.75-1.35,3.37-2.02,5.12l-1.08,2.56-2.96,6.33c-1.21,2.42-2.56,4.71-4.17,7l-2.29,3.23-3.37,3.91c-2.15,2.56-3.5,3.23-4.85,7.14.27,0,.81.13,1.08.4l1.08.54c1.21.67,2.29,1.62,3.37,2.69l1.08,1.21c1.21,1.48,2.42,2.83,3.64,4.58l1.89,2.83,2.56,4.17c.67,1.08,1.21,2.29,1.89,3.5l3.5,6.33,7.14,14.41,2.29,4.71.81,1.62-2.29.4-16.83,1.75c-.4-.54-.94-1.21-1.35-2.02l-.94-1.62c-.27-.54-.67-1.08-.94-1.75l-2.56-5.12c-1.21-2.42-2.56-5.39-3.91-8.08-3.77-8.35-7.94-14.54-18.18-21.28v14.81c0,4.98-.13,11.18-.13,15.22v2.56l-2.29.4c-4.85.81-10.91,1.35-16.16,1.35l-.27-4.71c-.13-3.1-.4-6.19-.4-9.29,0-.81-.13-1.75-.13-2.69,0-3.37-.13-7.81-.13-11.98,0-2.02-.13-4.17-.13-6.19v-58.17c0-1.21-.13-2.42-.13-3.64v-8.75c0-1.35-.13-2.56-.13-3.77v-1.75c0-.81-.13-1.62-.13-2.42v-3.91c0-4.44-.13-8.75-.13-13.2,3.1,0,7.14-.94,19.66.54,1.21,1.08,1.89,2.69,1.89,5.12v1.75c0,.67.13,1.48.13,2.29v7.27c0,1.62-.13,3.23-.13,4.98v4.04c0,8.89-.27,18.58-.27,32.32v4.71c0,6.06.4,10.37.4,12.25l1.75-.94c.81-.67,1.62-1.48,2.42-2.56l1.89-2.56c.67-.94,1.35-2.16,1.89-3.23l2.42-4.71,1.21-2.56,1.08-2.69c2.29-5.66,4.71-11.58,5.79-17.64l.81-4.71c0-.4.13-.67.13-1.08.27-2.42.27-4.44-.13-5.79.81-.13,2.83.13,4.44.13Z"></path>
      <path d="M363.03-513.62c.81-.13,12.52-.4,12.79-.4,2.15-.54,13.06.81,14.27.13,1.21-.27,2.42-.54,4.04-.67.13,1.21.27,2.16.13,3.1,0,5.79-.81,16.29-.81,27.47v9.43c0,3.23.13,6.33.4,9.56l.4,4.71c.27,2.56.54,5.12.54,7.68,0,1.08,0,2.02-.13,3.1-.13.94-.27,2.02-.27,2.96v10.23c0,2.83-.27,5.66-.27,8.48,0,2.02.13,3.91.27,5.92l.4,2.96.4,2.83c.27,2.42.27,4.85-.94,7.41-6.46.81-12.79,1.48-18.18.54-.54-.94-.67-1.62-.67-2.02,0-1.08-.13-2.02-.13-3.1l-.27-4.58c0-3.1-.4-5.92-.4-9.02,0-6.73.67-13.6.67-20.33,0-.67.13-1.62.13-2.69v-10.91c0-4.58.13-9.29.13-13.87v-12.93c0-1.08-.13-2.15-.13-3.1v-5.25h-1.62c-2.83,0-3.64.4-8.89.81,0,0-1.48-12.12-1.89-18.45Z"></path>
      <ellipse cx="191.48" cy="-458.32" rx="12.92" ry="16.32"></ellipse>
      <ellipse cx="255.81" cy="-444.82" rx="12.92" ry="16.32"></ellipse>
      <path d="M199.86-384.23c-1.29-1.86-2.01-3.61-2.72-5.75-.18-.55-.06-2.37-.46-1.53l-3.49,4.31c-1.68,1.09,1.53.91,2.74,1.16,1.83.37,3.68.61,5.54.73,3.32.21,6.65-.02,9.95-.47,7.01-.95,13.75-3.21,20.64-4.73,7.67-1.7,14.33-1.27,22.02-.24,2.72.36,7.62,1.22,10.16-.25,3.03-1.75-.41-.06.9-1.78-.19.26-.84,1.67-.99,1.94-5.43,9.49-16.43,8.49-25.84,10.7-13.26,3.12-28.21,8.51-38.45-4.09-3.19-3.92-9.73,5.11-6.98,8.5,10.88,13.38,26.47,10.08,41.1,6.31,12.28-3.16,24.86-2.46,33.13-13.73,2.76-3.77,6.03-8.51,6.1-13.36.1-7.34-7.09-4.03-11.54-4.17s-8.57-1.39-12.91-1.58c-3.79-.16-7.63.26-11.35.92-8.51,1.52-16.7,4.66-25.32,5.57-5.28.56-9.85-.43-14.99-1.23-3.38-.52-5.64,1.01-7.21,4.14-2.77,5.51-.25,12.42,3.01,17.12,2.81,4.06,9.48-4.88,6.98-8.5Z"></path>
      <path d="M622.78-705.7l-4.04,8.89-1.48,3.23-4.44,8.21c-3.37,5.92-8.35,15.49-15.62,21.68l-4.58,3.77c-.94,1.48-4.71.54-5.79,3.91,8.48,5.66,16.56,21.54,21.01,36.49l1.75,5.39c1.35,4.98,2.83,9.96,3.64,14.81-.67.13-1.35.13-2.29.13l-16.83.13c-.27-1.21-.4-2.69-.81-4.58l-.94-4.58-.67-3.37-.94-3.5c-.81-2.96-1.62-6.19-2.83-9.29-1.62-4.17-3.64-8.48-6.19-11.98l-8.48-10.5h-.4v25.05c0,.13-.13,4.98-.13,9.56-.13,2.56.81,5.25.54,8.21-.13,1.21-.27,2.42-.94,3.64-1.62.54-9.29,1.21-12.79,1.21-1.35,0-5.12-.4-5.12-2.69-.13-2.56-.54-6.46-.54-10.64,0-4.44-.4-9.02-.4-13.73,0-1.21-.13-2.42-.13-3.64,0-2.42-.13-4.85-.13-7.41v-7.68c0-1.21-.13-2.56-.13-3.77v-1.89c0-8.35-.4-21.28-.54-30.43,0-.94-.13-1.88-.13-2.69s-.13-1.75-.13-2.56c-1.89-.94-12.66-.54-18.45-.67-1.75,0-2.96-.13-3.37-.4l.4-17.64h.94c1.62,0,8.08-.4,14.27-.4,7.54-.13,16.16,0,22.22.81,1.21,1.48,1.88,3.64,2.15,6.33l.4,7.27c0,.67.13,1.21.13,1.89,0,1.21.13,2.42.13,3.64s.13,2.29.13,3.5c0,3.91.4,7.54.4,11.18l.27,4.71c2.69.81,5.39-1.08,8.48-4.17l2.42-2.69c19.26-22.49,14.54-33.13,27.07-33.13h4.58c2.69,0,5.66.13,8.35.4Z"></path>
      <path d="M669.78-680.79l1.08.27c5.79,2.29,9.7,8.21,11.18,14l.54,2.16c.27,1.08.4,2.15.54,3.37l.27,2.42c.27,2.42.54,4.98.54,7.81v1.48c0,1.35.13,2.83.13,4.31v15.22c0,3.23-.27,6.46-.27,9.7v1.21c0,3.9-1.48,8.08-3.1,11.58-5.39,9.7-15.62,12.39-28.68,12.39-3.37,0-6.46,0-9.29-.27-14.27-1.08-21.95-6.73-25.05-16.56l-.67-2.16c-.81-2.42-1.62-6.87-1.62-10.23,0-1.21-.27-2.56-.27-3.77v-8.21c0-4.58.4-9.43.4-13.87,0-1.48.13-3.23.27-4.58l.27-3.1c0-.67.27-1.35.27-2.02l.27-2.83c.13-1.21.54-2.42,1.08-4.04l1.35-3.77c.81-3.23,3.37-6.19,8.08-8.08l3.77-1.48c4.85-1.35,9.96-2.15,15.62-2.69,2.96-.27,6.06-.4,9.43-.4h1.21c4.58,0,8.48,1.08,12.66,2.15ZM638.81-635.81v2.02c0,.94.13,1.88.13,2.83s.13,1.89.13,2.83l.27,3.77c.13,1.62.4,3.37.4,4.98v1.35c0,.4.13.81.13,1.21.94,5.52,2.83,6.87,11.18,6.87,1.75,0,3.37,0,5.12-.4,8.75-1.48,9.16-10.1,9.16-18.99v-4.17c0-1.21-.13-2.56-.13-3.77v-1.89c0-2.69-.4-5.39-.4-8.08v-1.35c0-.94-.13-1.89-.13-2.83v-1.48c0-.54-.13-.94-.13-1.48v-2.29c0-8.35-3.77-10.37-11.45-10.37h-.81c-.81,0-1.75-.13-2.56-.13-10.1,0-11.04,5.12-11.04,11.85v1.89c0,2.02-.13,4.31-.13,6.73v4.04c0,2.29.27,4.58.27,6.87Z"></path>
      <path d="M745.05-697.08c12.93,6.73,13.2,22.76,13.2,40.26v3.5c0,4.98,0,10.23-.13,15.62,0,22.62-9.7,30.7-31.78,30.7-15.49,0-23.43-1.75-29.76-9.7-6.87-9.16-7-20.33-7-32.32v-2.96c0-5.92.4-11.31.67-16.16,0-2.29.27-4.71.54-6.87l.4-4.04c.13-.94.54-2.02.94-3.37l1.35-3.91c1.89-8.62,16.56-13.06,36.76-13.33,5.25,0,10.1.94,14.81,2.56ZM715.02-642.27c0,15.49-.4,19.53,12.66,19.53h1.48c11.45,0,12.25-7.68,12.25-20.47v-1.35c0-5.66-.27-11.85-.54-18.58,0-21.01-4.58-19.79-14.81-19.79h-1.89c-10.5,0-9.56,8.89-9.56,21.68v1.21c0,4.98,0,11.04.4,17.78Z"></path>
      <path d="M813.46-680.79h1.89c2.42,0,6.87-.4,11.18-.27,1.35,0,2.56.13,3.77.27.27,2.42-.13,7-.94,11.31l-.4,2.29c-.27,1.48-.81,3.37-1.21,4.71l-2.02,6.33c-.54,1.75-1.35,3.37-2.02,5.12l-1.08,2.56-2.96,6.33c-1.21,2.42-2.56,4.71-4.17,7l-2.29,3.23-3.37,3.91c-2.15,2.56-3.5,3.23-4.85,7.14.27,0,.81.13,1.08.4l1.08.54c1.21.67,2.29,1.62,3.37,2.69l1.08,1.21c1.21,1.48,2.42,2.83,3.64,4.58l1.89,2.83,2.56,4.17c.67,1.08,1.21,2.29,1.89,3.5l3.5,6.33,7.14,14.41,2.29,4.71.81,1.62-2.29.4-16.83,1.75c-.4-.54-.94-1.21-1.35-2.02l-.94-1.62c-.27-.54-.67-1.08-.94-1.75l-2.56-5.12c-1.21-2.42-2.56-5.39-3.91-8.08-3.77-8.35-7.94-14.54-18.18-21.28v14.81c0,4.98-.13,11.18-.13,15.22v2.56l-2.29.4c-4.85.81-10.91,1.35-16.16,1.35l-.27-4.71c-.13-3.1-.4-6.19-.4-9.29,0-.81-.13-1.75-.13-2.69,0-3.37-.13-7.81-.13-11.98,0-2.02-.13-4.17-.13-6.19v-58.17c0-1.21-.13-2.42-.13-3.64v-8.75c0-1.35-.13-2.56-.13-3.77v-1.75c0-.81-.13-1.62-.13-2.42v-3.91c0-4.44-.13-8.75-.13-13.2,3.1,0,7.14-.94,19.66.54,1.21,1.08,1.89,2.69,1.89,5.12v1.75c0,.67.13,1.48.13,2.29v7.27c0,1.62-.13,3.23-.13,4.98v4.04c0,8.89-.27,18.58-.27,32.32v4.71c0,6.06.4,10.37.4,12.25l1.75-.94c.81-.67,1.62-1.48,2.42-2.56l1.89-2.56c.67-.94,1.35-2.16,1.89-3.23l2.42-4.71,1.21-2.56,1.08-2.69c2.29-5.66,4.71-11.58,5.79-17.64l.81-4.71c0-.4.13-.67.13-1.08.27-2.42.27-4.44-.13-5.79.81-.13,2.83.13,4.44.13Z"></path>
      <path d="M827.73-705.03c.81-.13,12.52-.4,12.79-.4,2.15-.54,13.06.81,14.27.13,1.21-.27,2.42-.54,4.04-.67.13,1.21.27,2.16.13,3.1,0,5.79-.81,16.29-.81,27.47v9.43c0,3.23.13,6.33.4,9.56l.4,4.71c.27,2.56.54,5.12.54,7.68,0,1.08,0,2.02-.13,3.1-.13.94-.27,2.02-.27,2.96v10.23c0,2.83-.27,5.66-.27,8.48,0,2.02.13,3.91.27,5.92l.4,2.96.4,2.83c.27,2.42.27,4.85-.94,7.41-6.46.81-12.79,1.48-18.18.54-.54-.94-.67-1.62-.67-2.02,0-1.08-.13-2.02-.13-3.1l-.27-4.58c0-3.1-.4-5.92-.4-9.02,0-6.73.67-13.6.67-20.33,0-.67.13-1.62.13-2.69v-10.91c0-4.58.13-9.29.13-13.87v-12.93c0-1.08-.13-2.15-.13-3.1v-5.25h-1.62c-2.83,0-3.64.4-8.89.81,0,0-1.48-12.12-1.89-18.45Z"></path>
      <ellipse cx="656.18" cy="-649.72" rx="12.92" ry="16.32"></ellipse>
      <ellipse cx="720.5" cy="-636.22" rx="12.92" ry="16.32"></ellipse>
      <path d="M652.15-569.55c22.26-1.46,44.57-1.98,66.88-1.55,5.84.11,11.63-13.6,5.16-13.72-22.31-.42-44.61.09-66.88,1.55-3.53.23-6.17,3.22-7.33,6.42-.67,1.84-1.4,7.54,2.17,7.3h0Z"></path>
      <path d="M635.14-497.18l-4.04,8.89-1.48,3.23-4.44,8.21c-3.37,5.92-8.35,15.49-15.62,21.68l-4.58,3.77c-.94,1.48-4.71.54-5.79,3.91,8.48,5.66,16.56,21.54,21.01,36.49l1.75,5.39c1.35,4.98,2.83,9.96,3.64,14.81-.67.13-1.35.13-2.29.13l-16.83.13c-.27-1.21-.4-2.69-.81-4.58l-.94-4.58-.67-3.37-.94-3.5c-.81-2.96-1.62-6.19-2.83-9.29-1.62-4.17-3.64-8.48-6.19-11.98l-8.48-10.5h-.4v25.05c0,.13-.13,4.98-.13,9.56-.13,2.56.81,5.25.54,8.21-.13,1.21-.27,2.42-.94,3.64-1.62.54-9.29,1.21-12.79,1.21-1.35,0-5.12-.4-5.12-2.69-.13-2.56-.54-6.46-.54-10.64,0-4.44-.4-9.02-.4-13.73,0-1.21-.13-2.42-.13-3.64,0-2.42-.13-4.85-.13-7.41v-7.68c0-1.21-.13-2.56-.13-3.77v-1.89c0-8.35-.4-21.28-.54-30.43,0-.94-.13-1.88-.13-2.69s-.13-1.75-.13-2.56c-1.89-.94-12.66-.54-18.45-.67-1.75,0-2.96-.13-3.37-.4l.4-17.64h.94c1.62,0,8.08-.4,14.27-.4,7.54-.13,16.16,0,22.22.81,1.21,1.48,1.88,3.64,2.15,6.33l.4,7.27c0,.67.13,1.21.13,1.89,0,1.21.13,2.42.13,3.64s.13,2.29.13,3.5c0,3.91.4,7.54.4,11.18l.27,4.71c2.69.81,5.39-1.08,8.48-4.17l2.42-2.69c19.26-22.49,14.54-33.13,27.07-33.13h4.58c2.69,0,5.66.13,8.35.4Z"></path>
      <path d="M682.13-472.27l1.08.27c5.79,2.29,9.7,8.21,11.18,14l.54,2.16c.27,1.08.4,2.15.54,3.37l.27,2.42c.27,2.42.54,4.98.54,7.81v1.48c0,1.35.13,2.83.13,4.31v15.22c0,3.23-.27,6.46-.27,9.7v1.21c0,3.9-1.48,8.08-3.1,11.58-5.39,9.7-15.62,12.39-28.68,12.39-3.37,0-6.46,0-9.29-.27-14.27-1.08-21.95-6.73-25.05-16.56l-.67-2.16c-.81-2.42-1.62-6.87-1.62-10.23,0-1.21-.27-2.56-.27-3.77v-8.21c0-4.58.4-9.43.4-13.87,0-1.48.13-3.23.27-4.58l.27-3.1c0-.67.27-1.35.27-2.02l.27-2.83c.13-1.21.54-2.42,1.08-4.04l1.35-3.77c.81-3.23,3.37-6.19,8.08-8.08l3.77-1.48c4.85-1.35,9.96-2.15,15.62-2.69,2.96-.27,6.06-.4,9.43-.4h1.21c4.58,0,8.48,1.08,12.66,2.15ZM651.16-427.29v2.02c0,.94.13,1.88.13,2.83s.13,1.89.13,2.83l.27,3.77c.13,1.62.4,3.37.4,4.98v1.35c0,.4.13.81.13,1.21.94,5.52,2.83,6.87,11.18,6.87,1.75,0,3.37,0,5.12-.4,8.75-1.48,9.16-10.1,9.16-18.99v-4.17c0-1.21-.13-2.56-.13-3.77v-1.89c0-2.69-.4-5.39-.4-8.08v-1.35c0-.94-.13-1.89-.13-2.83v-1.48c0-.54-.13-.94-.13-1.48v-2.29c0-8.35-3.77-10.37-11.45-10.37h-.81c-.81,0-1.75-.13-2.56-.13-10.1,0-11.04,5.12-11.04,11.85v1.89c0,2.02-.13,4.31-.13,6.73v4.04c0,2.29.27,4.58.27,6.87Z"></path>
      <path d="M757.4-488.56c12.93,6.73,13.2,22.76,13.2,40.26v3.5c0,4.98,0,10.23-.13,15.62,0,22.62-9.7,30.7-31.78,30.7-15.49,0-23.43-1.75-29.76-9.7-6.87-9.16-7-20.33-7-32.32v-2.96c0-5.92.4-11.31.67-16.16,0-2.29.27-4.71.54-6.87l.4-4.04c.13-.94.54-2.02.94-3.37l1.35-3.91c1.89-8.62,16.56-13.06,36.76-13.33,5.25,0,10.1.94,14.81,2.56ZM727.38-433.76c0,15.49-.4,19.53,12.66,19.53h1.48c11.45,0,12.25-7.68,12.25-20.47v-1.35c0-5.66-.27-11.85-.54-18.58,0-21.01-4.58-19.79-14.81-19.79h-1.89c-10.5,0-9.56,8.89-9.56,21.68v1.21c0,4.98,0,11.04.4,17.78Z"></path>
      <path d="M825.81-472.27h1.89c2.42,0,6.87-.4,11.18-.27,1.35,0,2.56.13,3.77.27.27,2.42-.13,7-.94,11.31l-.4,2.29c-.27,1.48-.81,3.37-1.21,4.71l-2.02,6.33c-.54,1.75-1.35,3.37-2.02,5.12l-1.08,2.56-2.96,6.33c-1.21,2.42-2.56,4.71-4.17,7l-2.29,3.23-3.37,3.91c-2.15,2.56-3.5,3.23-4.85,7.14.27,0,.81.13,1.08.4l1.08.54c1.21.67,2.29,1.62,3.37,2.69l1.08,1.21c1.21,1.48,2.42,2.83,3.64,4.58l1.89,2.83,2.56,4.17c.67,1.08,1.21,2.29,1.89,3.5l3.5,6.33,7.14,14.41,2.29,4.71.81,1.62-2.29.4-16.83,1.75c-.4-.54-.94-1.21-1.35-2.02l-.94-1.62c-.27-.54-.67-1.08-.94-1.75l-2.56-5.12c-1.21-2.42-2.56-5.39-3.91-8.08-3.77-8.35-7.94-14.54-18.18-21.28v14.81c0,4.98-.13,11.18-.13,15.22v2.56l-2.29.4c-4.85.81-10.91,1.35-16.16,1.35l-.27-4.71c-.13-3.1-.4-6.19-.4-9.29,0-.81-.13-1.75-.13-2.69,0-3.37-.13-7.81-.13-11.98,0-2.02-.13-4.17-.13-6.19v-58.17c0-1.21-.13-2.42-.13-3.64v-8.75c0-1.35-.13-2.56-.13-3.77v-1.75c0-.81-.13-1.62-.13-2.42v-3.91c0-4.44-.13-8.75-.13-13.2,3.1,0,7.14-.94,19.66.54,1.21,1.08,1.89,2.69,1.89,5.12v1.75c0,.67.13,1.48.13,2.29v7.27c0,1.62-.13,3.23-.13,4.98v4.04c0,8.89-.27,18.58-.27,32.32v4.71c0,6.06.4,10.37.4,12.25l1.75-.94c.81-.67,1.62-1.48,2.42-2.56l1.89-2.56c.67-.94,1.35-2.16,1.89-3.23l2.42-4.71,1.21-2.56,1.08-2.69c2.29-5.66,4.71-11.58,5.79-17.64l.81-4.71c0-.4.13-.67.13-1.08.27-2.42.27-4.44-.13-5.79.81-.13,2.83.13,4.44.13Z"></path>
      <path d="M840.09-496.51c.81-.13,12.52-.4,12.79-.4,2.15-.54,13.06.81,14.27.13,1.21-.27,2.42-.54,4.04-.67.13,1.21.27,2.16.13,3.1,0,5.79-.81,16.29-.81,27.47v9.43c0,3.23.13,6.33.4,9.56l.4,4.71c.27,2.56.54,5.12.54,7.68,0,1.08,0,2.02-.13,3.1-.13.94-.27,2.02-.27,2.96v10.23c0,2.83-.27,5.66-.27,8.48,0,2.02.13,3.91.27,5.92l.4,2.96.4,2.83c.27,2.42.27,4.85-.94,7.41-6.46.81-12.79,1.48-18.18.54-.54-.94-.67-1.62-.67-2.02,0-1.08-.13-2.02-.13-3.1l-.27-4.58c0-3.1-.4-5.92-.4-9.02,0-6.73.67-13.6.67-20.33,0-.67.13-1.62.13-2.69v-10.91c0-4.58.13-9.29.13-13.87v-12.93c0-1.08-.13-2.15-.13-3.1v-5.25h-1.62c-2.83,0-3.64.4-8.89.81,0,0-1.48-12.12-1.89-18.45Z"></path>
      <ellipse cx="668.53" cy="-441.2" rx="12.92" ry="16.32"></ellipse>
      <ellipse cx="732.86" cy="-427.71" rx="12.92" ry="16.32"></ellipse>
      <path d="M654.85-344.43c23-11.85,46.79-24.03,72.85-27.06,3.37-.39,6.77-.58,10.16-.6,1.14,0,3.22-.41,4.18.1,1.14.61.98,1.56,1.23,2.95.65,3.54,1.09,7.14,1.63,10.7.31,2.03,2.23,8.63.75,10.44-.63.77-3.96-.59-5.17-1.34-2.78-1.72-4.94-4.53-6.93-7.07-3.87-4.93-7.05-10.35-9.46-16.14-2.98-7.16-12.58,3.74-10.41,8.95,4.29,10.31,16.55,35.27,31.42,28.28,7.5-3.53,11.44-12.31,11.55-20.25.07-4.91-1.05-9.89-1.79-14.73-.58-3.84-.38-9.41-2.58-12.73-2.08-3.14-5.87-2.89-9.26-2.88-4.27.02-8.54.33-12.78.83-8.8,1.03-17.43,3.14-25.84,5.91-17.3,5.69-33.61,13.94-49.76,22.26-3.05,1.57-5.48,5.75-5.3,9.19s2.59,4.69,5.51,3.18h0Z"></path>
      <path d="M693.91-1132.36l31.09.72.43,39.18,8.82-7.66h29.21l-18.22,35.57,16.92,34.85-68.25-.72v-101.94Z"></path>
      <path d="M792.81-1102.29c22.27,0,36.44,14.75,36.44,38.17,0,14.46-2.89,36-34.12,36s-36-21.98-36-36.73c0-17.06,11.42-37.45,33.69-37.45Z"></path>
      <path d="M867.27-1102.29c22.27,0,36.44,14.75,36.44,38.17,0,14.46-2.89,36-34.12,36s-36-21.98-36-36.73c0-17.06,11.42-37.45,33.69-37.45Z"></path>
      <path d="M910.21-1132.36l31.09.72.43,39.18,8.82-7.66h29.21l-18.22,35.57,16.92,34.85-68.25-.72v-101.94Z"></path>
      <path d="M984.82-1116.89c0-11.42,8.1-17.21,15.76-17.78,7.81-.43,18.51,3.76,20.1,13.45,1.45,9.54-2.75,20.68-15.47,22.56-12.58,2.02-20.39-6.8-20.39-18.22ZM985.25-1084.65l35.57-1.45c.43,0,2.6,55.67,2.6,55.67h-38.17v-54.22Z"></path>
      <ellipse class="cls-2" cx="869.73" cy="-1065.2" rx="23.55" ry="25.89"></ellipse>
      <ellipse class="cls-2" cx="794.18" cy="-1065.2" rx="23.55" ry="25.89"></ellipse>
      <circle cx="880.65" cy="-1054.55" r="7.48"></circle>
      <circle cx="784.04" cy="-1065.2" r="7.48"></circle>
      <path d="M695.3-994.84l31.09.72.43,39.18,8.82-7.66h29.21l-18.22,35.57,16.92,34.85-68.25-.72v-101.94Z"></path>
      <path d="M794.2-964.77c22.27,0,36.44,14.75,36.44,38.17,0,14.46-2.89,36-34.12,36s-36-21.98-36-36.73c0-17.06,11.42-37.45,33.69-37.45Z"></path>
      <path d="M868.66-964.77c22.27,0,36.44,14.75,36.44,38.17,0,14.46-2.89,36-34.12,36s-36-21.98-36-36.73c0-17.06,11.42-37.45,33.69-37.45Z"></path>
      <path d="M911.6-994.84l31.09.72.43,39.18,8.82-7.66h29.21l-18.22,35.57,16.92,34.85-68.25-.72v-101.94Z"></path>
      <path d="M986.21-979.37c0-11.42,8.1-17.21,15.76-17.78,7.81-.43,18.51,3.76,20.1,13.45,1.45,9.54-2.75,20.68-15.47,22.56-12.58,2.02-20.39-6.8-20.39-18.22ZM986.64-947.13l35.57-1.45c.43,0,2.6,55.67,2.6,55.67h-38.17v-54.22Z"></path>
      <ellipse class="cls-2" cx="871.12" cy="-927.68" rx="23.55" ry="25.89"></ellipse>
      <ellipse class="cls-2" cx="795.57" cy="-927.68" rx="23.55" ry="25.89"></ellipse>
      <circle cx="882.04" cy="-917.03" r="7.48"></circle>
      <circle cx="787.43" cy="-934.68" r="7.48"></circle>
      <text class="cls-6" transform="translate(1194.77 -1132.36)"><tspan x="0" y="0">kooki</tspan></text>
      <text class="cls-1" transform="translate(1185.06 -932.74)"><tspan x="0" y="0">kooki</tspan></text>
      <g>
        <path class="cls-5" d="M1039.35-692.19l31.09.72.43,39.18,8.82-7.66h29.21l-18.22,35.57,16.92,34.85-68.25-.72v-101.94Z"></path>
        <path class="cls-5" d="M1133.12-638.94c-4.13,0-7.48,3.35-7.48,7.48s3.35,7.48,7.48,7.48,7.48-3.35,7.48-7.48-3.35-7.48-7.48-7.48ZM1133.12-638.94c-4.13,0-7.48,3.35-7.48,7.48s3.35,7.48,7.48,7.48,7.48-3.35,7.48-7.48-3.35-7.48-7.48-7.48ZM1139.89-661.55c-22.27,0-33.69,20.39-33.69,37.45,0,14.75,4.77,36.73,36,36.73s34.12-21.55,34.12-36c0-23.43-14.17-38.18-36.43-38.18ZM1141.26-598.57c-13.01,0-23.55-11.59-23.55-25.89s10.54-25.89,23.55-25.89,23.55,11.59,23.55,25.89-10.54,25.89-23.55,25.89ZM1133.12-638.94c-4.13,0-7.48,3.35-7.48,7.48s3.35,7.48,7.48,7.48,7.48-3.35,7.48-7.48-3.35-7.48-7.48-7.48ZM1133.12-638.94c-4.13,0-7.48,3.35-7.48,7.48s3.35,7.48,7.48,7.48,7.48-3.35,7.48-7.48-3.35-7.48-7.48-7.48ZM1133.12-638.94c-4.13,0-7.48,3.35-7.48,7.48s3.35,7.48,7.48,7.48,7.48-3.35,7.48-7.48-3.35-7.48-7.48-7.48Z"></path>
        <path class="cls-5" d="M1213.61-661.55c-22.27,0-33.69,20.39-33.69,37.45,0,14.75,4.77,36.73,36,36.73s34.13-21.55,34.13-36c0-23.43-14.17-38.18-36.44-38.18ZM1216.07-598.57c-13.01,0-23.55-11.59-23.55-25.89s10.54-25.89,23.55-25.89,23.55,11.59,23.55,25.89-10.55,25.89-23.55,25.89ZM1219.5-613.81c0,4.13,3.35,7.48,7.49,7.48s7.48-3.35,7.48-7.48-3.35-7.48-7.48-7.48-7.49,3.35-7.49,7.48Z"></path>
        <path class="cls-5" d="M1255.65-692.19l31.09.72.43,39.18,8.82-7.66h29.21l-18.22,35.57,16.92,34.85-68.25-.72v-101.94Z"></path>
        <path class="cls-5" d="M1330.26-676.72c0-11.42,8.1-17.21,15.76-17.78,7.81-.43,18.51,3.76,20.1,13.45,1.45,9.54-2.75,20.68-15.47,22.56-12.58,2.02-20.39-6.8-20.39-18.22ZM1330.69-644.47l35.57-1.45c.43,0,2.6,55.67,2.6,55.67h-38.17v-54.22Z"></path>
      </g>
      <g>
        <path d="M34,137.01l47.93,1.11.67,60.41,13.6-11.81h45.03l-28.09,54.84,26.08,53.72-105.22-1.11v-157.15Z"></path>
        <path d="M178.56,219.1c-6.37,0-11.53,5.16-11.53,11.53s5.16,11.53,11.53,11.53,11.53-5.16,11.53-11.53-5.16-11.53-11.53-11.53ZM178.56,219.1c-6.37,0-11.53,5.16-11.53,11.53s5.16,11.53,11.53,11.53,11.53-5.16,11.53-11.53-5.16-11.53-11.53-11.53ZM189,184.24c-34.33,0-51.94,31.43-51.94,57.74,0,22.74,7.35,56.63,55.5,56.63s52.6-33.22,52.6-55.5c0-36.12-21.85-58.86-56.16-58.86ZM191.11,281.34c-20.06,0-36.31-17.87-36.31-39.91s16.25-39.91,36.31-39.91,36.31,17.87,36.31,39.91-16.25,39.91-36.31,39.91ZM178.56,219.1c-6.37,0-11.53,5.16-11.53,11.53s5.16,11.53,11.53,11.53,11.53-5.16,11.53-11.53-5.16-11.53-11.53-11.53ZM178.56,219.1c-6.37,0-11.53,5.16-11.53,11.53s5.16,11.53,11.53,11.53,11.53-5.16,11.53-11.53-5.16-11.53-11.53-11.53ZM178.56,219.1c-6.37,0-11.53,5.16-11.53,11.53s5.16,11.53,11.53,11.53,11.53-5.16,11.53-11.53-5.16-11.53-11.53-11.53Z"></path>
        <path d="M302.65,184.24c-34.33,0-51.94,31.43-51.94,57.74,0,22.74,7.35,56.63,55.5,56.63s52.62-33.22,52.62-55.5c0-36.12-21.85-58.86-56.18-58.86ZM306.45,281.34c-20.06,0-36.31-17.87-36.31-39.91s16.25-39.91,36.31-39.91,36.31,17.87,36.31,39.91-16.26,39.91-36.31,39.91ZM311.73,257.84c0,6.37,5.16,11.53,11.55,11.53s11.53-5.16,11.53-11.53-5.16-11.53-11.53-11.53-11.55,5.16-11.55,11.53Z"></path>
        <path d="M367.47,137.01l47.93,1.11.67,60.41,13.6-11.81h45.03l-28.09,54.84,26.08,53.72-105.22-1.11v-157.15Z"></path>
        <path d="M482.49,160.86c0-17.61,12.48-26.53,24.3-27.42,12.04-.67,28.53,5.8,30.99,20.73,2.23,14.71-4.24,31.88-23.85,34.77-19.39,3.12-31.43-10.48-31.43-28.09ZM483.15,210.57l54.84-2.23c.67,0,4.01,85.82,4.01,85.82h-58.85v-83.59Z"></path>
      </g>
    </g>
  </g>
</svg><style>@media (prefers-color-scheme: light) { :root { filter: none; } }
@media (prefers-color-scheme: dark) { :root { filter: none; } }
</style></svg>